HIERARCHY
ROOT Hips
{
	OFFSET -3.958830 18.904000 13.208200
	CHANNELS 6 Xposition Yposition Zposition Zrotation Yrotation Xrotation 
	JOINT LHipJoint
	{
		OFFSET 0.000000 0.000000 0.000000
		CHANNELS 3 Zrotation Yrotation Xrotation
		JOINT LeftUpLeg
		{
			OFFSET 1.800000 -1.400000 0.085000
			CHANNELS 3 Zrotation Yrotation Xrotation
			JOINT LeftLeg
			{
				OFFSET 2.215000 -6.000000 0.000000
				CHANNELS 3 Zrotation Yrotation Xrotation
				JOINT LeftFoot
				{
					OFFSET 2.500000 -6.900000 0.000000
					CHANNELS 3 Zrotation Yrotation Xrotation
					JOINT LeftToeBase
					{
						OFFSET 0.200000 -0.500000 1.950000
						CHANNELS 3 Zrotation Yrotation Xrotation
						End Site
						{
							OFFSET 0.000000 0.000000 0.000000
						}
					}
				}
			}
		}
	}
	JOINT RHipJoint
	{
		OFFSET 0.000000 0.000000 0.000000
		CHANNELS 3 Zrotation Yrotation Xrotation
		JOINT RightUpLeg
		{
			OFFSET -1.800000 -1.400000 0.085000
			CHANNELS 3 Zrotation Yrotation Xrotation
			JOINT RightLeg
			{
				OFFSET -2.215000 -6.000000 0.000000
				CHANNELS 3 Zrotation Yrotation Xrotation
				JOINT RightFoot
				{
					OFFSET -2.500000 -6.900000 0.000000
					CHANNELS 3 Zrotation Yrotation Xrotation
					JOINT RightToeBase
					{
						OFFSET -0.200000 -0.500000 1.950000
						CHANNELS 3 Zrotation Yrotation Xrotation
						End Site
						{
							OFFSET 0.000000 0.000000 0.000000
						}
					}
				}
			}
		}
	}
	JOINT LowerBack
	{
		OFFSET 0.000000 0.000000 0.000000
		CHANNELS 3 Zrotation Yrotation Xrotation
		JOINT Spine
		{
			OFFSET -0.087000 1.940000 -0.288900
			CHANNELS 3 Zrotation Yrotation Xrotation
			JOINT Spine1
			{
				OFFSET 0.000000 1.950000 0.060000
				CHANNELS 3 Zrotation Yrotation Xrotation
				JOINT Neck
				{
					OFFSET 0.000000 0.000000 0.000000
					CHANNELS 3 Zrotation Yrotation Xrotation
					JOINT Neck1
					{
						OFFSET 0.000000 1.600000 0.340000
						CHANNELS 3 Zrotation Yrotation Xrotation
						JOINT Head
						{
							OFFSET 0.000000 1.667000 -0.240000
							CHANNELS 3 Zrotation Yrotation Xrotation
							End Site
							{
								OFFSET 0.000000 0.000000 0.000000
							}
						}
					}
				}
				JOINT LeftShoulder
				{
					OFFSET 0.000000 0.000000 0.000000
					CHANNELS 3 Zrotation Yrotation Xrotation
					JOINT LeftArm
					{
						OFFSET 2.700000 1.550000 -0.730000
						CHANNELS 3 Zrotation Yrotation Xrotation
						JOINT LeftForeArm
						{
							OFFSET 5.450000 0.000000 0.000000
							CHANNELS 3 Zrotation Yrotation Xrotation
							JOINT LeftHand
							{
								OFFSET 3.450000 0.000000 0.000000
								CHANNELS 3 Zrotation Yrotation Xrotation
								JOINT LeftHandIndex1
								{
									OFFSET 0.750000 0.000000 0.000000
									CHANNELS 3 Zrotation Yrotation Xrotation
									End Site
									{
										OFFSET 0.000000 0.000000 0.000000
									}
								}
							}
						}
					}
				}
				JOINT RightShoulder
				{
					OFFSET 0.000000 0.000000 0.000000
					CHANNELS 3 Zrotation Yrotation Xrotation
					JOINT RightArm
					{
						OFFSET -2.700000 1.550000 -0.730000
						CHANNELS 3 Zrotation Yrotation Xrotation
						JOINT RightForeArm
						{
							OFFSET -5.450000 0.000000 0.000000
							CHANNELS 3 Zrotation Yrotation Xrotation
							JOINT RightHand
							{
								OFFSET -3.450000 0.000000 0.000000
								CHANNELS 3 Zrotation Yrotation Xrotation
								JOINT RightHandIndex1
								{
									OFFSET -0.750000 0.000000 0.000000
									CHANNELS 3 Zrotation Yrotation Xrotation
									End Site
									{
										OFFSET 0.000000 0.000000 0.000000
									}
								}
							}
						}
					}
				}
			}
		}
	}
}
MOTION
Frames: 4
Frame Time: 0.016667
0.918640 16.920330 -1.468590 -4.599876 -3.095039 4.149811 -14.702876 12.890114 3.074033 26.318821 -0.846939 -11.278553 -2.720058 4.962682 5.357722 -0.814654 5.739010 3.085751 0.312540 -0.490630 -0.008550 18.685017 -10.879731 2.631952 -2.924738 1.585690 -10.196532 8.667092 -6.048641 13.987210 -0.314554 -4.101010 3.256282 -0.043940 1.047750 0.426210 -4.782338 -0.951705 -7.437424 27.231768 -3.774389 7.603872 -15.975096 -0.093701 -1.831129 1.914430 -5.703200 -9.873738 -11.220844 3.338021 29.502340 3.796250 -5.122710 -1.804660 -12.044207 -3.933481 1.017145 4.108841 -4.752457 0.970483 8.923913 18.134324 -0.811291 -4.772708 2.578007 0.740930 0.508630 -0.549990 0.453360 7.052528 7.450437 8.164666 6.726975 -2.564201 -3.373054 -24.253561 -10.666127 2.228051 2.110410 -1.683696 -0.568620 0.517300 0.324220 -0.273730 
0.909700 16.917100 -1.479790 -4.674437 -3.038520 4.107139 -14.706622 12.896045 3.069573 26.446272 -0.802733 -11.527128 -2.665732 5.000470 5.662500 -0.806565 5.721885 3.080484 0.320200 -0.475970 -0.005650 18.683487 -10.880635 2.635040 -2.670388 1.670920 -10.381661 8.532078 -6.054307 14.391403 -0.315243 -4.095799 3.255087 -0.042580 1.034360 0.426630 -4.775252 -0.948926 -7.440749 27.159273 -3.784735 7.806230 -15.875688 -0.028118 -1.602792 1.924431 -5.703202 -10.002143 -11.181261 3.225689 29.249058 3.804890 -5.163180 -1.940170 -12.000021 -4.022817 1.140613 4.306474 -4.346992 0.985698 8.740590 17.145854 -0.927415 -4.749268 2.590067 0.734710 0.502150 -0.543940 0.452710 7.032603 7.558817 8.288165 6.596567 -2.903407 -3.282733 -23.624693 -10.418212 2.113843 2.116627 -1.679812 -0.555300 0.505130 0.315750 -0.270330 
0.899600 16.914230 -1.493230 -4.752481 -2.910117 4.044014 -14.709869 12.909845 3.051962 26.508914 -0.761773 -11.825552 -2.452505 4.999935 6.001481 -0.810880 5.698998 3.076026 0.319420 -0.473750 -0.019750 18.682148 -10.883297 2.642075 -2.412120 1.752785 -10.551515 8.438429 -6.075488 14.766888 -0.315205 -4.101121 3.249287 -0.041910 1.030020 0.435080 -4.769592 -0.951930 -7.436836 27.120330 -3.849218 8.031687 -15.772489 -0.006545 -1.337576 1.890900 -5.780521 -10.148918 -11.268921 3.153417 28.901952 3.934110 -5.309770 -2.071040 -11.942115 -4.062874 1.302336 4.523256 -3.665460 1.082080 8.292401 15.364224 -1.142795 -4.718988 2.604813 0.733630 0.500140 -0.539950 0.456260 7.095290 7.659011 8.419722 6.179377 -3.284467 -3.125574 -22.597407 -9.868660 1.912162 2.110283 -1.666638 -0.548020 0.493660 0.318350 -0.265510 
0.885650 16.909640 -1.508970 -4.752293 -2.745005 4.013006 -14.709760 12.916296 3.031938 26.503268 -0.729414 -12.131497 -2.260830 4.990335 6.286267 -0.811526 5.670241 3.083916 0.310010 -0.476170 -0.040360 18.684038 -10.895631 2.647407 -2.159258 1.851996 -10.809911 8.249248 -6.074203 15.202283 -0.308938 -4.098965 3.251640 -0.044180 1.040290 0.436030 -4.773661 -0.927039 -7.426831 26.997333 -3.887268 8.194923 -15.670141 0.025579 -1.058567 1.790058 -5.894741 -10.257482 -11.411441 3.083717 28.544235 4.141270 -5.531880 -2.090330 -11.804074 -4.114367 1.465225 4.276781 -3.179272 1.134868 8.576707 13.492475 -1.217448 -4.693100 2.613297 0.726250 0.503760 -0.542820 0.461320 7.201921 7.809167 8.491271 6.200576 -3.408557 -3.106152 -22.343794 -9.670812 1.849303 2.108916 -1.661821 -0.546030 0.496140 0.323360 -0.254800 
